<?xml version="1.0" encoding="UTF-8"?>
<svg width="1200pt" height="1200pt" version="1.1" viewBox="0 0 1200 1200" xmlns="http://www.w3.org/2000/svg">
 <path d="m1150 425v350c0 110.28-89.723 200-200 200h-700c-110.28 0-200-89.723-200-200v-350c0-10.332 1.0312-20.402 2.5508-30.316l524.25 274.61c7.2734 3.8047 15.23 5.7109 23.203 5.7109s15.93-1.9062 23.207-5.7109l524.24-274.61c1.5195 9.9102 2.5508 19.988 2.5508 30.32zm-550 143.55 501.8-262.84c2.0859-1.0938 4.2578-1.8047 6.4141-2.582-36.602-47.41-93.824-78.129-158.22-78.129h-700c-64.391 0-121.61 30.719-158.22 78.133 2.1602 0.77344 4.3359 1.4844 6.4258 2.582z"/>
</svg>
