<?xml version="1.0" encoding="UTF-8"?>
<svg width="1200pt" height="1200pt" version="1.1" viewBox="0 0 1200 1200" xmlns="http://www.w3.org/2000/svg">
 <path d="m982.5 213.75c-5.625-3.75-11.25-3.75-16.875-1.875-46.875 20.625-95.625 5.625-123.75-31.875-13.125-16.875-20.625-39.375-20.625-60 0-5.625-1.875-9.375-5.625-13.125s-7.5-5.625-13.125-5.625h-191.25c-11.25 0-18.75 7.5-18.75 18.75v665.62 3.75c-3.75 33.75-30 58.125-63.75 58.125-35.625 0-65.625-30-65.625-65.625 0-33.75 24.375-60 58.125-63.75 9.375-1.875 16.875-9.375 16.875-18.75v-217.5c0-11.25-7.5-18.75-18.75-18.75h-3.75c-172.5 7.5-305.62 146.25-305.62 318.75 0 176.25 142.5 318.75 318.75 318.75 165 0 303.75-127.5 316.88-290.62 1.875-1.875 1.875-5.625 1.875-7.5v-361.88c41.25 9.375 84.375 13.125 129.38 5.625 9.375-1.875 15-9.375 15-18.75v-198.75c0-5.625-3.75-11.25-9.375-15zm-28.125 198.75c-43.125 3.75-82.5 0-121.88-13.125-5.625-1.875-11.25 0-16.875 1.875-5.625 3.75-7.5 9.375-7.5 15v378.75c0 1.875 0 3.75-1.875 5.625-9.375 146.25-133.12 262.5-279.38 262.5-155.62 0-281.25-125.62-281.25-281.25 0-146.25 108.75-266.25 253.12-279.38v181.88c-43.125 13.125-75 52.5-75 97.5 0 56.25 46.875 103.12 103.12 103.12 50.625 0 93.75-37.5 101.25-86.25 1.875-1.875 1.875-5.625 1.875-7.5v-652.5h155.62c3.75 24.375 13.125 45 26.25 63.75 31.875 43.125 88.125 65.625 142.5 52.5z"/>
</svg>
